<mxfile host="app.diagrams.net" modified="2022-04-08T07:41:45.126Z" agent="5.0 (Macintosh; Intel Mac OS X 10_15_7) AppleWebKit/537.36 (KHTML, like Gecko) Chrome/100.0.4896.75 Safari/537.36" etag="S1s3sOS96WCZkevXBApq" version="17.4.0" type="github">
  <diagram id="qb2QijtlPLX8Nrxyc3IW" name="Page-1">
    <mxGraphModel dx="946" dy="551" grid="1" gridSize="10" guides="1" tooltips="1" connect="1" arrows="1" fold="1" page="1" pageScale="1" pageWidth="827" pageHeight="1169" math="0" shadow="0">
      <root>
        <mxCell id="0" />
        <mxCell id="1" parent="0" />
        <mxCell id="e_Ku7SED3-dMAhRjCooA-3" style="edgeStyle=orthogonalEdgeStyle;rounded=0;orthogonalLoop=1;jettySize=auto;html=1;exitX=0.5;exitY=1;exitDx=0;exitDy=0;entryX=0.5;entryY=0;entryDx=0;entryDy=0;fontSize=14;" edge="1" parent="1" source="e_Ku7SED3-dMAhRjCooA-1" target="e_Ku7SED3-dMAhRjCooA-2">
          <mxGeometry relative="1" as="geometry" />
        </mxCell>
        <mxCell id="e_Ku7SED3-dMAhRjCooA-1" value="开始" style="ellipse;whiteSpace=wrap;html=1;aspect=fixed;fontSize=14;" vertex="1" parent="1">
          <mxGeometry x="160" y="80" width="80" height="80" as="geometry" />
        </mxCell>
        <mxCell id="e_Ku7SED3-dMAhRjCooA-5" style="edgeStyle=orthogonalEdgeStyle;rounded=0;orthogonalLoop=1;jettySize=auto;html=1;exitX=0.5;exitY=1;exitDx=0;exitDy=0;entryX=0.5;entryY=0;entryDx=0;entryDy=0;fontSize=14;" edge="1" parent="1" source="e_Ku7SED3-dMAhRjCooA-2" target="e_Ku7SED3-dMAhRjCooA-4">
          <mxGeometry relative="1" as="geometry" />
        </mxCell>
        <mxCell id="e_Ku7SED3-dMAhRjCooA-2" value="编辑问卷" style="rounded=1;whiteSpace=wrap;html=1;fontSize=14;" vertex="1" parent="1">
          <mxGeometry x="140" y="200" width="120" height="60" as="geometry" />
        </mxCell>
        <mxCell id="e_Ku7SED3-dMAhRjCooA-7" style="edgeStyle=orthogonalEdgeStyle;rounded=0;orthogonalLoop=1;jettySize=auto;html=1;exitX=0.5;exitY=1;exitDx=0;exitDy=0;entryX=0.5;entryY=0;entryDx=0;entryDy=0;fontSize=14;" edge="1" parent="1" source="e_Ku7SED3-dMAhRjCooA-4" target="e_Ku7SED3-dMAhRjCooA-6">
          <mxGeometry relative="1" as="geometry" />
        </mxCell>
        <mxCell id="e_Ku7SED3-dMAhRjCooA-4" value="楼组长内测" style="rounded=1;whiteSpace=wrap;html=1;fontSize=14;" vertex="1" parent="1">
          <mxGeometry x="140" y="300" width="120" height="60" as="geometry" />
        </mxCell>
        <mxCell id="e_Ku7SED3-dMAhRjCooA-9" style="edgeStyle=orthogonalEdgeStyle;rounded=0;orthogonalLoop=1;jettySize=auto;html=1;exitX=0.5;exitY=1;exitDx=0;exitDy=0;entryX=0.5;entryY=0;entryDx=0;entryDy=0;fontSize=14;" edge="1" parent="1" source="e_Ku7SED3-dMAhRjCooA-6" target="e_Ku7SED3-dMAhRjCooA-8">
          <mxGeometry relative="1" as="geometry" />
        </mxCell>
        <mxCell id="e_Ku7SED3-dMAhRjCooA-6" value="居委评估" style="rounded=1;whiteSpace=wrap;html=1;fontSize=14;" vertex="1" parent="1">
          <mxGeometry x="140" y="400" width="120" height="60" as="geometry" />
        </mxCell>
        <mxCell id="e_Ku7SED3-dMAhRjCooA-11" style="edgeStyle=orthogonalEdgeStyle;rounded=0;orthogonalLoop=1;jettySize=auto;html=1;exitX=1;exitY=0.5;exitDx=0;exitDy=0;entryX=1;entryY=0.5;entryDx=0;entryDy=0;fontSize=14;" edge="1" parent="1" source="e_Ku7SED3-dMAhRjCooA-8" target="e_Ku7SED3-dMAhRjCooA-2">
          <mxGeometry relative="1" as="geometry">
            <Array as="points">
              <mxPoint x="400" y="545" />
              <mxPoint x="400" y="230" />
            </Array>
          </mxGeometry>
        </mxCell>
        <mxCell id="e_Ku7SED3-dMAhRjCooA-12" value="否" style="edgeLabel;html=1;align=center;verticalAlign=middle;resizable=0;points=[];fontSize=14;" vertex="1" connectable="0" parent="e_Ku7SED3-dMAhRjCooA-11">
          <mxGeometry x="-0.8771" y="1" relative="1" as="geometry">
            <mxPoint x="1" as="offset" />
          </mxGeometry>
        </mxCell>
        <mxCell id="e_Ku7SED3-dMAhRjCooA-14" style="edgeStyle=orthogonalEdgeStyle;rounded=0;orthogonalLoop=1;jettySize=auto;html=1;exitX=0.5;exitY=1;exitDx=0;exitDy=0;entryX=0.5;entryY=0;entryDx=0;entryDy=0;fontSize=14;" edge="1" parent="1" source="e_Ku7SED3-dMAhRjCooA-8" target="e_Ku7SED3-dMAhRjCooA-13">
          <mxGeometry relative="1" as="geometry" />
        </mxCell>
        <mxCell id="e_Ku7SED3-dMAhRjCooA-19" value="是" style="edgeLabel;html=1;align=center;verticalAlign=middle;resizable=0;points=[];fontSize=14;" vertex="1" connectable="0" parent="e_Ku7SED3-dMAhRjCooA-14">
          <mxGeometry x="-0.1556" y="3" relative="1" as="geometry">
            <mxPoint x="-3" as="offset" />
          </mxGeometry>
        </mxCell>
        <mxCell id="e_Ku7SED3-dMAhRjCooA-8" value="同意下发问卷？" style="rhombus;whiteSpace=wrap;html=1;fontSize=14;" vertex="1" parent="1">
          <mxGeometry x="90" y="505" width="220" height="80" as="geometry" />
        </mxCell>
        <mxCell id="e_Ku7SED3-dMAhRjCooA-16" style="edgeStyle=orthogonalEdgeStyle;rounded=0;orthogonalLoop=1;jettySize=auto;html=1;exitX=0.5;exitY=1;exitDx=0;exitDy=0;entryX=0.5;entryY=0;entryDx=0;entryDy=0;fontSize=14;" edge="1" parent="1" source="e_Ku7SED3-dMAhRjCooA-13" target="e_Ku7SED3-dMAhRjCooA-15">
          <mxGeometry relative="1" as="geometry" />
        </mxCell>
        <mxCell id="e_Ku7SED3-dMAhRjCooA-13" value="发放问卷" style="rounded=1;whiteSpace=wrap;html=1;fontSize=14;" vertex="1" parent="1">
          <mxGeometry x="140" y="630" width="120" height="60" as="geometry" />
        </mxCell>
        <mxCell id="e_Ku7SED3-dMAhRjCooA-18" style="edgeStyle=orthogonalEdgeStyle;rounded=0;orthogonalLoop=1;jettySize=auto;html=1;exitX=0.5;exitY=1;exitDx=0;exitDy=0;entryX=0.5;entryY=0;entryDx=0;entryDy=0;fontSize=14;" edge="1" parent="1" source="e_Ku7SED3-dMAhRjCooA-15" target="e_Ku7SED3-dMAhRjCooA-17">
          <mxGeometry relative="1" as="geometry" />
        </mxCell>
        <mxCell id="e_Ku7SED3-dMAhRjCooA-15" value="群主统计、分析结果" style="rounded=1;whiteSpace=wrap;html=1;fontSize=14;" vertex="1" parent="1">
          <mxGeometry x="140" y="740" width="120" height="60" as="geometry" />
        </mxCell>
        <mxCell id="e_Ku7SED3-dMAhRjCooA-21" style="edgeStyle=orthogonalEdgeStyle;rounded=0;orthogonalLoop=1;jettySize=auto;html=1;exitX=0.5;exitY=1;exitDx=0;exitDy=0;entryX=0.5;entryY=0;entryDx=0;entryDy=0;fontSize=14;" edge="1" parent="1" source="e_Ku7SED3-dMAhRjCooA-17" target="e_Ku7SED3-dMAhRjCooA-20">
          <mxGeometry relative="1" as="geometry" />
        </mxCell>
        <mxCell id="e_Ku7SED3-dMAhRjCooA-17" value="汇报给居委" style="rounded=1;whiteSpace=wrap;html=1;fontSize=14;" vertex="1" parent="1">
          <mxGeometry x="140" y="840" width="120" height="60" as="geometry" />
        </mxCell>
        <mxCell id="e_Ku7SED3-dMAhRjCooA-20" value="结束" style="ellipse;whiteSpace=wrap;html=1;aspect=fixed;fontSize=14;" vertex="1" parent="1">
          <mxGeometry x="160" y="930" width="80" height="80" as="geometry" />
        </mxCell>
      </root>
    </mxGraphModel>
  </diagram>
</mxfile>
